<?xml version="1.0" standalone="no"?><!DOCTYPE svg PUBLIC "-//W3C//DTD SVG 1.1//EN" "http://www.w3.org/Graphics/SVG/1.1/DTD/svg11.dtd"><svg t="1603417486695" class="icon" viewBox="0 0 1024 1024" version="1.1" xmlns="http://www.w3.org/2000/svg" p-id="3061" xmlns:xlink="http://www.w3.org/1999/xlink" width="200" height="200"><defs><style type="text/css"></style></defs><path d="M568.888889 834.133333l14.222222 84.053334a412.444444 412.444444 0 0 1-387.413333-671.288889l2.702222-2.986667-51.484444-43.377778a9.386667 9.386667 0 0 1 3.555555-15.644444l189.724445-52.48a7.111111 7.111111 0 0 1 8.96 7.537778l-18.204445 195.84a9.386667 9.386667 0 0 1-15.36 6.257777l-51.484444-42.666666-2.56 2.986666A327.111111 327.111111 0 0 0 568.888889 834.133333z m304.355555-5.831111l-52.053333-43.662222c2.275556-2.56 4.693333-4.977778 6.968889-7.537778A412.444444 412.444444 0 0 0 438.186667 106.24l14.222222 84.053333a327.111111 327.111111 0 0 1 310.186667 531.911111c-2.275556 2.702222-4.551111 5.12-6.826667 7.68l-51.342222-42.666666a9.386667 9.386667 0 0 0-15.36 6.257778l-18.346667 195.555555a7.111111 7.111111 0 0 0 8.96 7.537778l189.724444-51.911111a9.386667 9.386667 0 0 0 3.555556-16.213334z" fill="#ffffff" p-id="3062"></path></svg>